<?xml version="1.0" encoding="utf-8"?>
<!-- Generator: Adobe Illustrator 22.1.0, SVG Export Plug-In . SVG Version: 6.00 Build 0)  -->
<svg version="1.1" id="Слой_1" xmlns="http://www.w3.org/2000/svg" xmlns:xlink="http://www.w3.org/1999/xlink" x="0px" y="0px"
	 viewBox="0 0 884 926" style="enable-background:new 0 0 884 926;" xml:space="preserve">
<style type="text/css">
	.st0{opacity:0.2;fill:url(#SVGID_1_);enable-background:new    ;}
	.st1{opacity:0.15;fill:#FFFFFF;enable-background:new    ;}
	.st2{fill:#F2C94C;}
	.st3{opacity:0.2;fill:url(#SVGID_2_);enable-background:new    ;}
	.st4{opacity:0.1;fill:url(#SVGID_3_);enable-background:new    ;}
	.st5{opacity:0.3;fill:url(#SVGID_4_);enable-background:new    ;}
	.st6{opacity:0.4;fill:url(#SVGID_5_);enable-background:new    ;}
	.st7{opacity:0.1;fill:url(#SVGID_6_);enable-background:new    ;}
	.st8{opacity:0.2;fill:url(#SVGID_7_);enable-background:new    ;}
	.st9{opacity:0.2;fill:url(#SVGID_8_);enable-background:new    ;}
	.st10{opacity:0.2;fill:#FFFFFF;enable-background:new    ;}
	.st11{opacity:0.3;fill:url(#SVGID_9_);enable-background:new    ;}
	.st12{fill:#F2994A;}
	.st13{opacity:0.2;fill:url(#SVGID_10_);enable-background:new    ;}
</style>
<linearGradient id="SVGID_1_" gradientUnits="userSpaceOnUse" x1="574.9189" y1="754.3545" x2="623.028" y2="669.3354" gradientTransform="matrix(1 0 0 -1 0 926)">
	<stop  offset="0" style="stop-color:#FFFFFF"/>
	<stop  offset="1" style="stop-color:#FFFFFF;stop-opacity:0"/>
</linearGradient>
<path class="st0" d="M490.8,219.3L706.2,97.3l1,111.7L491.7,331L490.8,219.3z"/>
<path class="st1" d="M651.3,155.5l-64.8,36.7l0.1,13.4l64.8-36.7L651.3,155.5z"/>
<path class="st1" d="M651.5,182.4l-138,78.1l0.1,13.6l138-78.1L651.5,182.4z"/>
<path class="st2" d="M662.8,159.5c0.1,9.2,5.6,13.6,12.4,9.7c6.8-3.8,12.2-14.4,12.1-23.6c-0.1-9.2-5.6-13.6-12.4-9.7
	C668.1,139.8,662.7,150.3,662.8,159.5z"/>
<linearGradient id="SVGID_2_" gradientUnits="userSpaceOnUse" x1="84.8397" y1="253.9466" x2="132.9489" y2="168.9274" gradientTransform="matrix(1 0 0 -1 0 926)">
	<stop  offset="0" style="stop-color:#FFFFFF"/>
	<stop  offset="1" style="stop-color:#FFFFFF;stop-opacity:0"/>
</linearGradient>
<path class="st3" d="M0.7,719.7l215.5-121.9l1,111.7L1.6,831.4L0.7,719.7z"/>
<path class="st1" d="M161.3,655.9l-64.8,36.7l0.1,13.4l64.8-36.7L161.3,655.9z"/>
<path class="st1" d="M161.4,682.8l-138,78.1l0.1,13.6l138-78.1L161.4,682.8z"/>
<path class="st2" d="M172.7,660c0.1,9.2,5.6,13.6,12.4,9.7c6.8-3.8,12.2-14.4,12.1-23.6c-0.1-9.2-5.6-13.6-12.4-9.7
	C178,640.2,172.6,650.7,172.7,660z"/>
<linearGradient id="SVGID_3_" gradientUnits="userSpaceOnUse" x1="513.7565" y1="870.0008" x2="235.1951" y2="620.6898" gradientTransform="matrix(1 0 0 -1 0 926)">
	<stop  offset="0" style="stop-color:#FFFFFF"/>
	<stop  offset="1" style="stop-color:#FFFFFF;stop-opacity:0"/>
</linearGradient>
<path class="st4" d="M252,4.6c40.6,7.9,131.9,18.1,171.7-4.4c-0.3,159.2-39.3,385.1-166.8,571.4c-129.5-40.9-172-220.7-175-377.9
	C121.7,171.1,211.9,58.2,252,4.6z"/>
<linearGradient id="SVGID_4_" gradientUnits="userSpaceOnUse" x1="563.3472" y1="837.0277" x2="284.7862" y2="587.7165" gradientTransform="matrix(1 0 0 -1 0 926)">
	<stop  offset="0" style="stop-color:#FFFFFF"/>
	<stop  offset="1" style="stop-color:#FFFFFF;stop-opacity:0"/>
</linearGradient>
<path class="st5" d="M301.6,37.6c40.6,7.9,131.9,18.1,171.7-4.4C473,192.3,434,418.2,306.5,604.5c-129.5-40.9-172-220.6-175-377.9
	C171.3,204,261.5,91.2,301.6,37.6z"/>
<linearGradient id="SVGID_5_" gradientUnits="userSpaceOnUse" x1="116.9656" y1="640.7604" x2="340.4256" y2="597.9921" gradientTransform="matrix(1 0 0 -1 0 926)">
	<stop  offset="0" style="stop-color:#FFFFFF"/>
	<stop  offset="1" style="stop-color:#FFFFFF;stop-opacity:0"/>
</linearGradient>
<path class="st6" d="M131.5,226.6c39.9-22.6,130-135.4,170.1-189l4.9,566.9C177,563.6,134.5,383.9,131.5,226.6z"/>
<linearGradient id="SVGID_6_" gradientUnits="userSpaceOnUse" x1="542.5519" y1="418.7414" x2="334.4548" y2="212.0804" gradientTransform="matrix(1 0 0 -1 0 926)">
	<stop  offset="0" style="stop-color:#FFFFFF"/>
	<stop  offset="1" style="stop-color:#FFFFFF;stop-opacity:0"/>
</linearGradient>
<path class="st7" d="M515.4,336.9L315.9,449.8l4.1,475.7l199.4-112.9L515.4,336.9z"/>
<linearGradient id="SVGID_7_" gradientUnits="userSpaceOnUse" x1="465.1834" y1="370.0607" x2="377.2574" y2="176.7948" gradientTransform="matrix(1 0 0 -1 0 926)">
	<stop  offset="0" style="stop-color:#FFFFFF"/>
	<stop  offset="1" style="stop-color:#FFFFFF;stop-opacity:0"/>
</linearGradient>
<path class="st8" d="M491.8,552.8l-150.4,85.1l1.1,132.2L493,685L491.8,552.8z"/>
<path class="st1" d="M488.1,464.8l-69.5,39.3l0.1,13.6l69.5-39.3L488.1,464.8z"/>
<path class="st1" d="M488.1,491.8l-69.5,39.3l0.1,13.6l69.5-39.3L488.1,491.8z"/>
<path class="st1" d="M488.6,517.8l-132,74.7l0.1,13.6l132-74.7L488.6,517.8z"/>
<linearGradient id="SVGID_8_" gradientUnits="userSpaceOnUse" x1="447.2654" y1="588.4653" x2="386.4285" y2="418.1343" gradientTransform="matrix(1 0 0 -1 0 926)">
	<stop  offset="0" style="stop-color:#FFFFFF"/>
	<stop  offset="1" style="stop-color:#FFFFFF;stop-opacity:0"/>
</linearGradient>
<path class="st9" d="M515.4,336.9L315.9,449.8l0.6,63.7l199.4-112.9L515.4,336.9z"/>
<path class="st10" d="M465.8,397.4c0.1,9.6,5.8,14.2,12.8,10.3c7-4,12.6-15,12.5-24.6c-0.1-9.6-5.8-14.2-12.8-10.3
	C471.3,376.8,465.7,387.8,465.8,397.4z"/>
<path class="st2" d="M398.7,552.6l-0.5-54.8L263,574.3l0.5,54.8L398.7,552.6z"/>
<linearGradient id="SVGID_9_" gradientUnits="userSpaceOnUse" x1="619.2465" y1="666.8245" x2="772.8975" y2="546.5204" gradientTransform="matrix(1 0 0 -1 0 926)">
	<stop  offset="0" style="stop-color:#FFFFFF"/>
	<stop  offset="1" style="stop-color:#FFFFFF;stop-opacity:0"/>
</linearGradient>
<path class="st11" d="M554.4,321.3l297.6-171.8l-0.1,155.1L580.5,461.2l-26.3,38.9L554.4,321.3z"/>
<path class="st12" d="M883.6,210l0-42.1l-112.3,64.8l0,42.1L883.6,210z"/>
<path class="st1" d="M630.8,314.9l65.2-37.6l0,13.6l-65.2,37.6L630.8,314.9z"/>
<path class="st1" d="M630.8,342.1l125.7-72.5l0,13.6l-125.7,72.5L630.8,342.1z"/>
<path class="st1" d="M630.8,369.4l152.3-87.9l0,13.6l-152.3,87.9L630.8,369.4z"/>
<path class="st12" d="M614.8,338.4c0,12.8-7.6,27.5-16.9,32.9c-9.3,5.4-16.9-0.6-16.9-13.4c0-12.8,7.6-27.5,16.9-32.9
	C607.2,319.6,614.8,325.6,614.8,338.4z"/>
<linearGradient id="SVGID_10_" gradientUnits="userSpaceOnUse" x1="629.219" y1="405.8932" x2="681.577" y2="364.5742" gradientTransform="matrix(1 0 0 -1 0 926)">
	<stop  offset="0" style="stop-color:#FFFFFF"/>
	<stop  offset="1" style="stop-color:#FFFFFF;stop-opacity:0"/>
</linearGradient>
<path class="st13" d="M650.1,481.1c-6,3.4-10.8,11.8-10.8,18.7l0,30.5L619.1,542c-6,3.4-10.8,11.8-10.8,18.7c0,6.9,4.8,9.7,10.8,6.3
	l20.2-11.6l0,30.5c0,6.9,4.8,9.7,10.8,6.3c6-3.4,10.8-11.8,10.8-18.7l0-30.5l20.2-11.6c6-3.4,10.8-11.8,10.8-18.7
	c0-6.9-4.8-9.7-10.8-6.3l-20.2,11.6l0-30.5C660.9,480.5,656.1,477.7,650.1,481.1z"/>
</svg>
